<?xml version="1.0" standalone="no"?>
<!DOCTYPE svg PUBLIC "-//W3C//DTD SVG 20010904//EN"
 "http://www.w3.org/TR/2001/REC-SVG-20010904/DTD/svg10.dtd">
<svg version="1.0" xmlns="http://www.w3.org/2000/svg"
 width="512.000000pt" height="512.000000pt" viewBox="0 0 512.000000 512.000000"
 preserveAspectRatio="xMidYMid meet">
<metadata>
Created by potrace 1.14, written by Peter Selinger 2001-2017
</metadata>
<g transform="translate(0.000000,512.000000) scale(0.100000,-0.100000)"
fill="#000000" stroke="none">
<path d="M1476 4410 c-73 -13 -155 -46 -208 -85 -91 -67 -176 -201 -197 -311
-6 -31 -10 -590 -10 -1431 0 -1094 3 -1393 13 -1437 20 -85 74 -181 145 -258
71 -77 97 -93 191 -120 62 -17 123 -17 1155 -12 1198 7 1139 3 1248 67 56 33
151 135 181 195 62 124 58 14 59 1575 l1 1422 -22 59 c-12 33 -33 78 -46 101
-40 67 -150 163 -235 204 l-76 36 -1075 1 c-591 1 -1097 -2 -1124 -6z m2122
-302 l3 -138 -1041 0 -1040 0 0 138 0 138 1038 -1 1037 0 3 -137z m126 106
c107 -54 146 -116 154 -244 7 -125 4 -129 -60 -82 -68 51 -86 60 -146 72 l-49
11 -6 112 c-4 62 -4 122 -1 135 8 30 42 29 108 -4z m-27 -471 c74 -39 143
-118 170 -195 17 -50 18 -113 18 -1193 0 -1094 -1 -1142 -19 -1190 -38 -101
-121 -185 -211 -216 -33 -11 -237 -13 -1100 -13 l-1060 -1 -39 24 c-72 45 -68
-50 -68 1388 l0 1293 30 53 c53 95 -50 88 1157 85 l1060 -3 62 -32z"/>
<path d="M2034 3141 c-25 -15 -34 -29 -39 -62 -4 -23 -4 -344 0 -713 6 -649 7
-672 26 -691 22 -23 101 -27 122 -6 9 9 13 134 17 479 4 411 7 462 18 422 8
-25 31 -83 51 -130 21 -47 66 -160 101 -252 34 -91 71 -176 81 -187 34 -37 87
-23 114 29 21 41 184 483 202 550 8 30 19 62 24 70 5 9 6 -190 2 -467 -7 -553
-12 -523 77 -523 86 0 80 -56 80 736 0 776 4 734 -66 753 -43 12 -77 1 -97
-31 -8 -13 -77 -178 -152 -368 -75 -190 -140 -348 -144 -352 -3 -4 -19 27 -35
70 -49 131 -247 615 -264 644 -9 15 -29 32 -45 38 -38 13 -37 13 -73 -9z"/>
</g>
</svg>
